<svg xmlns="http://www.w3.org/2000/svg" version="1.1" xmlns:xlink="http://www.w3.org/1999/xlink" width="1000" height="1000"><style>
    #light-icon {
      display: inline;
    }
    #dark-icon {
      display: none;
    }

    @media (prefers-color-scheme: dark) {
      #light-icon {
        display: none;
      }
      #dark-icon {
        display: inline;
      }
    }
  </style><g id="light-icon"><svg xmlns="http://www.w3.org/2000/svg" version="1.1" xmlns:xlink="http://www.w3.org/1999/xlink" width="1000" height="1000"><g clip-path="url(#SvgjsClipPath1036)"><rect width="1000" height="1000" fill="#ffffff"></rect><g transform="matrix(2.356902356902357,0,0,2.356902356902357,252.52525252525254,150)"><svg xmlns="http://www.w3.org/2000/svg" version="1.1" xmlns:xlink="http://www.w3.org/1999/xlink" width="210mm" height="297mm"><svg width="210mm" height="297mm" viewBox="0 0 210 297" version="1.1" id="svg1" xmlns:inkscape="http://www.inkscape.org/namespaces/inkscape" xmlns:sodipodi="http://sodipodi.sourceforge.net/DTD/sodipodi-0.dtd" xmlns="http://www.w3.org/2000/svg" xmlns:svg="http://www.w3.org/2000/svg">
  <sodipodi:namedview id="namedview1" pagecolor="#ffffff" bordercolor="#000000" borderopacity="0.25" inkscape:showpageshadow="2" inkscape:pageopacity="0.0" inkscape:pagecheckerboard="0" inkscape:deskcolor="#d1d1d1" inkscape:document-units="mm"></sodipodi:namedview>
  <defs id="defs1">
    <inkscape:path-effect effect="fillet_chamfer" id="path-effect2" is_visible="true" lpeversion="1" nodesatellites_param="F,0,0,1,0,4.0151972,0,1 @ F,0,0,1,0,3.4703097,0,1 @ F,0,0,1,0,5.779392,0,1 @ F,0,0,1,0,5.1693297,0,1 @ F,0,0,1,0,3.4703097,0,1 @ F,0,0,1,0,4.1793569,0,1 @ F,0,0,1,0,4.2453727,0,1" radius="0" unit="px" method="auto" mode="F" chamfer_steps="1" flexible="false" use_knot_distance="true" apply_no_radius="true" apply_with_radius="true" only_selected="false" hide_knots="false"></inkscape:path-effect>
  <clipPath id="SvgjsClipPath1036"><rect width="1000" height="1000" x="0" y="0" rx="500" ry="500"></rect></clipPath></defs>
  <g inkscape:label="Layer 1" inkscape:groupmode="layer" id="layer1">
    <g id="g3" transform="matrix(0.95781005,0,0,0.94129525,1.8069525,10.000467)" style="fill:#000000">
      <path id="path1" style="fill:#000000;stroke-width:0.263275" inkscape:transform-center-x="-2.2221221" inkscape:transform-center-y="3.4866863" d="m 76.925675,121.21626 -34.096696,0.3334 V 50.644647 l 108.040791,0.195869 v 28.362601 l -74.039655,0.747082 z" sodipodi:nodetypes="ccccccc"></path>
      <path id="rect2" style="fill:#000000;stroke-width:0.268933" d="m 76.830115,130.74466 0.09556,50.06469 -34.096696,21.77143 v -71.84879 z" sodipodi:nodetypes="ccccc"></path>
      <path id="path2" style="fill:#000000;stroke-width:0.280585" inkscape:transform-center-x="1.9562967" inkscape:transform-center-y="0.40932743" d="m 115.15083,136.38737 35.68918,-0.54472 a 0.8836193,0.8836193 74.840318 0 1 0.44787,1.653 l -60.675183,34.25142 c -2.779572,1.56908 -5.105302,0.25453 -5.171166,-2.93666 -0.577914,-28.0009 0.283702,-50.76246 0.353945,-75.847474 0.008,-2.854534 2.317007,-5.16861 5.171949,-5.16861 l 56.432035,0 a 3.4703097,3.4703097 45 0 1 3.47031,3.47031 v 16.541844 a 4.1994422,4.1994422 134.86265 0 1 -4.17931,4.1994 l -31.43898,0.15073 a 4.2429994,4.2429994 134.70929 0 0 -4.22259,4.26566 l 0.0857,16.01124 a 3.9756094,3.9756094 44.409416 0 0 4.03623,3.95386 z" sodipodi:nodetypes="cccccccc" inkscape:path-effect="#path-effect2" inkscape:original-d="m 111.1361,136.44865 43.17382,-0.65896 -68.730083,38.79845 c -0.890317,-32.65987 0.272918,-57.8944 0.218258,-86.793814 h 65.071675 v 24.191514 l -39.86361,0.19112 z"></path>
    </g>
  </g>
</svg></svg></g></g></svg></g><g id="dark-icon"><svg xmlns="http://www.w3.org/2000/svg" version="1.1" xmlns:xlink="http://www.w3.org/1999/xlink" width="1000" height="1000"><g clip-path="url(#SvgjsClipPath1037)"><rect width="1000" height="1000" fill="#ffffff"></rect><g transform="matrix(2.356902356902357,0,0,2.356902356902357,252.52525252525254,150)"><svg xmlns="http://www.w3.org/2000/svg" version="1.1" xmlns:xlink="http://www.w3.org/1999/xlink" width="210mm" height="297mm"><svg width="210mm" height="297mm" viewBox="0 0 210 297" version="1.1" id="svg1" xmlns:inkscape="http://www.inkscape.org/namespaces/inkscape" xmlns:sodipodi="http://sodipodi.sourceforge.net/DTD/sodipodi-0.dtd" xmlns="http://www.w3.org/2000/svg" xmlns:svg="http://www.w3.org/2000/svg">
  <sodipodi:namedview id="namedview1" pagecolor="#ffffff" bordercolor="#000000" borderopacity="0.25" inkscape:showpageshadow="2" inkscape:pageopacity="0.0" inkscape:pagecheckerboard="0" inkscape:deskcolor="#d1d1d1" inkscape:document-units="mm"></sodipodi:namedview>
  <defs id="defs1">
    <inkscape:path-effect effect="fillet_chamfer" id="path-effect2" is_visible="true" lpeversion="1" nodesatellites_param="F,0,0,1,0,4.0151972,0,1 @ F,0,0,1,0,3.4703097,0,1 @ F,0,0,1,0,5.779392,0,1 @ F,0,0,1,0,5.1693297,0,1 @ F,0,0,1,0,3.4703097,0,1 @ F,0,0,1,0,4.1793569,0,1 @ F,0,0,1,0,4.2453727,0,1" radius="0" unit="px" method="auto" mode="F" chamfer_steps="1" flexible="false" use_knot_distance="true" apply_no_radius="true" apply_with_radius="true" only_selected="false" hide_knots="false"></inkscape:path-effect>
  <clipPath id="SvgjsClipPath1037"><rect width="1000" height="1000" x="0" y="0" rx="350" ry="350"></rect></clipPath></defs>
  <g inkscape:label="Layer 1" inkscape:groupmode="layer" id="layer1">
    <g id="g3" transform="matrix(0.95781005,0,0,0.94129525,1.8069525,10.000467)" style="fill:#000000">
      <path id="path1" style="fill:#000000;stroke-width:0.263275" inkscape:transform-center-x="-2.2221221" inkscape:transform-center-y="3.4866863" d="m 76.925675,121.21626 -34.096696,0.3334 V 50.644647 l 108.040791,0.195869 v 28.362601 l -74.039655,0.747082 z" sodipodi:nodetypes="ccccccc"></path>
      <path id="rect2" style="fill:#000000;stroke-width:0.268933" d="m 76.830115,130.74466 0.09556,50.06469 -34.096696,21.77143 v -71.84879 z" sodipodi:nodetypes="ccccc"></path>
      <path id="path2" style="fill:#000000;stroke-width:0.280585" inkscape:transform-center-x="1.9562967" inkscape:transform-center-y="0.40932743" d="m 115.15083,136.38737 35.68918,-0.54472 a 0.8836193,0.8836193 74.840318 0 1 0.44787,1.653 l -60.675183,34.25142 c -2.779572,1.56908 -5.105302,0.25453 -5.171166,-2.93666 -0.577914,-28.0009 0.283702,-50.76246 0.353945,-75.847474 0.008,-2.854534 2.317007,-5.16861 5.171949,-5.16861 l 56.432035,0 a 3.4703097,3.4703097 45 0 1 3.47031,3.47031 v 16.541844 a 4.1994422,4.1994422 134.86265 0 1 -4.17931,4.1994 l -31.43898,0.15073 a 4.2429994,4.2429994 134.70929 0 0 -4.22259,4.26566 l 0.0857,16.01124 a 3.9756094,3.9756094 44.409416 0 0 4.03623,3.95386 z" sodipodi:nodetypes="cccccccc" inkscape:path-effect="#path-effect2" inkscape:original-d="m 111.1361,136.44865 43.17382,-0.65896 -68.730083,38.79845 c -0.890317,-32.65987 0.272918,-57.8944 0.218258,-86.793814 h 65.071675 v 24.191514 l -39.86361,0.19112 z"></path>
    </g>
  </g>
</svg></svg></g></g></svg></g></svg>